# xmcd
#
# Track frame offsets:
#	150
#	14055
#	27465
#	42180
#	56444
#	69645
#	82805
#	95889
#	108951
#	122187
#	133681
#	147525
#	159942
#	174575
#	189184
#	203702
#	217962
#	229279
#	242926
#	257367
#
# Disc length: 3630 seconds
# Revision: 0
# Processed by: cddbd v1.5.2PL0 Copyright (c) Steve Scherf et al.
# Submitted via: dBpowerAMP V12.0
#
DISCID=1c0e2c14
DTITLE=Ma Rainey - The Essential
DYEAR=2016
DGENRE=Blues
TTITLE0=Ma Rainey's Black Bottom
TTITLE1=Wringing And Twisting Blues
TTITLE2=Sissy Blues
TTITLE3=Trust No Man
TTITLE4=Don't Fish In My Sea
TTITLE5=Blues Oh Blues
TTITLE6=Oh Papa Blues
TTITLE7=Dead Drunk Blues
TTITLE8=New Bo Weavil Blues
TTITLE9=Black Cat Hoot Owl Blues
TTITLE10=Hear Me Talking To You
TTITLE11=Prove It On Me Blues
TTITLE12=Daddy Goodbye Blues
TTITLE13=Sleep Talking Blues
TTITLE14=Blame It On The Blues
TTITLE15=Sweet Rough Man
TTITLE16=Runaway Blues
TTITLE17=Screech Owl Blues
TTITLE18=Leaving This Morning
TTITLE19=Black Eye Blues
EXTD=
EXTT0=
EXTT1=
EXTT2=
EXTT3=
EXTT4=
EXTT5=
EXTT6=
EXTT7=
EXTT8=
EXTT9=
EXTT10=
EXTT11=
EXTT12=
EXTT13=
EXTT14=
EXTT15=
EXTT16=
EXTT17=
EXTT18=
EXTT19=
PLAYORDER=
